<svg width="100" height="100" viewBox="0 0 100 100" fill="none" xmlns="http://www.w3.org/2000/svg">
  <rect x="0" y="0" width="100" height="100" fill="#1E1E1E"/>
  <path d="M45 20C45 20 40 20 40 25C40 30 45 30 45 30C45 30 50 30 50 25C50 20 45 20 45 20Z" fill="#3776AB"/>
  <path d="M55 20C55 20 60 20 60 25C60 30 55 30 55 30C55 30 50 30 50 25C50 20 55 20 55 20Z" fill="#FFD43B"/>
  <path d="M45 70C45 70 40 70 40 75C40 80 45 80 45 80C45 80 50 80 50 75C50 70 45 70 45 70Z" fill="#FFD43B"/>
  <path d="M55 70C55 70 60 70 60 75C60 80 55 80 55 80C55 80 50 80 50 75C50 70 55 70 55 70Z" fill="#3776AB"/>
  <path d="M30 35C30 35 25 35 25 40C25 45 30 45 30 45C30 45 35 45 35 40C35 35 30 35 30 35Z" fill="#FFD43B"/>
  <path d="M70 35C70 35 75 35 75 40C75 45 70 45 70 45C70 45 65 45 65 40C65 35 70 35 70 35Z" fill="#3776AB"/>
  <path d="M30 55C30 55 25 55 25 60C25 65 30 65 30 65C30 65 35 65 35 60C35 55 30 55 30 55Z" fill="#3776AB"/>
  <path d="M70 55C70 55 75 55 75 60C75 65 70 65 70 65C70 65 65 65 65 60C65 55 70 55 70 55Z" fill="#FFD43B"/>
</svg>
