<svg xmlns="http://www.w3.org/2000/svg" viewBox="0 0 128 128">
  <defs>
    <linearGradient id="python-original-a" gradientUnits="userSpaceOnUse" x1="70.252" y1="1237.476" x2="170.659" y2="1151.089" gradientTransform="matrix(.563 0 0 -.568 -29.215 707.817)">
      <stop offset="0" stop-color="#5A9FD4"/>
      <stop offset="1" stop-color="#306998"/>
    </linearGradient>
    <linearGradient id="python-original-b" gradientUnits="userSpaceOnUse" x1="209.474" y1="1098.811" x2="173.62" y2="1149.537" gradientTransform="matrix(.563 0 0 -.568 -29.215 707.817)">
      <stop offset="0" stop-color="#FFD43B"/>
      <stop offset="1" stop-color="#FFE873"/>
    </linearGradient>
  </defs>
  <path fill="url(#python-original-a)" d="M63.391 1.988c-4.222.02-8.252.379-11.8 1.007-10.45 1.846-12.346 5.71-12.346 12.837v9.411h24.693v3.137H29.977c-7.176 0-13.46 5.313-14.836 12.521-2.172 11.345-2.172 22.73 0 34.075 1.376 7.207 7.66 12.521 14.836 12.521h8.164V95.38c0 8.176 5.51 15.683 13.686 17.106 6.675 1.194 13.316 1.194 19.991 0 8.176-1.424 13.686-8.93 13.686-17.106V75.037h8.164c7.176 0 13.46-5.313 14.836-12.521 2.172-11.345 2.172-22.73 0-34.075-1.376-7.207-7.66-12.521-14.836-12.521H87.677V25.232c0-7.127-1.896-10.991-12.346-12.837-3.548-.628-7.578-.987-11.8-1.007h-6.14zM50.037 9.557c2.55 0 4.634 2.117 4.634 4.721 0 2.593-2.083 4.69-4.634 4.69-2.56 0-4.633-2.097-4.633-4.69-.001-2.604 2.073-4.721 4.633-4.721z"/>
  <path fill="url(#python-original-b)" d="M91.682 28.38v10.966c0 8.176-5.51 15.683-13.686 17.106-6.675 1.194-13.316 1.194-19.991 0-8.176-1.424-13.686-8.93-13.686-17.106V28.38c0-8.176 5.51-15.683 13.686-17.106 6.675-1.194 13.316-1.194 19.991 0C86.172 12.697 91.682 20.204 91.682 28.38zM77.35 42.641c2.56 0 4.634 2.097 4.634 4.69 0 2.604-2.074 4.721-4.634 4.721-2.55 0-4.633-2.117-4.633-4.721 0-2.593 2.083-4.69 4.633-4.69z"/>
</svg>
