<svg xmlns="http://www.w3.org/2000/svg" viewBox="0 0 128 128">
  <g fill="#61DAFB">
    <circle cx="64" cy="64" r="11.4"/>
    <path d="M107.3 45.2c-2.2-.8-4.5-1.6-6.9-2.3.6-2.4 1.1-4.8 1.5-7.1 2.1-13.2-.2-22.5-6.8-25.3-6.6-2.8-15.9 2.3-24.9 12.1C63.6 20.2 56.3 15 48.7 15s-14.9 5.2-23.2 14.6c-9 9.8-18.3 14.9-24.9 12.1-6.6-2.8-8.9-12.1-6.8-25.3.4-2.3.9-4.7 1.5-7.1-2.4.7-4.7 1.4-6.9 2.3C4.6 47.9 3 56.9 3 64s1.6 16.1 4.7 18.8c2.2.8 4.5 1.6 6.9 2.3-.6 2.4-1.1 4.8-1.5 7.1-2.1 13.2.2 22.5 6.8 25.3 6.6 2.8 15.9-2.3 24.9-12.1C33.4 107.8 40.7 113 48.3 113s14.9-5.2 23.2-14.6c9-9.8 18.3-14.9 24.9-12.1 6.6 2.8 8.9 12.1 6.8 25.3-.4 2.3-.9 4.7-1.5 7.1 2.4-.7 4.7-1.4 6.9-2.3 3.1-2.7 4.7-11.7 4.7-18.8s-1.6-16.1-4.7-18.8zM91.5 28.7c4.1 2.2 5.4 9.7 3.8 20.3-.4 2.7-.9 5.4-1.5 8.1-5.2-1.2-10.7-2-16.5-2.5-3.4-4.8-6.9-9.1-10.4-13 7.4-7.3 14.9-12.3 21-12.3 1.9 0 3.7.3 5.6.4zM7 28.7c1.9-.1 3.7-.4 5.6-.4 6.1 0 13.6 5 21 12.3-3.5 3.8-7 8.2-10.4 13-5.8.5-11.3 1.4-16.5 2.5-.6-2.7-1.1-5.4-1.5-8.1C9.6 38.4 10.9 30.9 7 28.7zM7 99.3c-4.1-2.2-5.4-9.7-3.8-20.3.4-2.7.9-5.4 1.5-8.1 5.2 1.2 10.7 2 16.5 2.5 3.4 4.8 6.9 9.1 10.4 13-7.4 7.3-14.9 12.3-21 12.3-1.9 0-3.7-.3-5.6-.4zM96.3 93.5c-1.9.1-3.7.4-5.6.4-6.1 0-13.6-5-21-12.3 3.5-3.8 7-8.2 10.4-13 5.8-.5 11.3-1.4 16.5-2.5.6 2.7 1.1 5.4 1.5 8.1 1.7 10.6.4 18.1-3.8 20.3zM64 87c-12.7 0-23-10.3-23-23s10.3-23 23-23 23 10.3 23 23-10.3 23-23 23z"/>
  </g>
</svg>
